<?xml version="1.0" standalone="no"?>
<!DOCTYPE svg PUBLIC "-//W3C//DTD SVG 20010904//EN"
 "http://www.w3.org/TR/2001/REC-SVG-20010904/DTD/svg10.dtd">
<svg version="1.0" xmlns="http://www.w3.org/2000/svg"
 width="788.000000pt" height="788.000000pt" viewBox="0 0 788.000000 788.000000"
 preserveAspectRatio="xMidYMid meet">
<metadata>
Created by potrace 1.11, written by Peter Selinger 2001-2013
</metadata>
<g transform="translate(0.000000,788.000000) scale(0.100000,-0.100000)"
fill="#000000" stroke="none">
<path d="M539 7791 l-29 -29 0 -2855 0 -2855 24 -29 c13 -15 47 -39 75 -53 28
-14 51 -28 51 -32 0 -5 7 -8 15 -8 8 0 15 -5 15 -12 0 -6 3 -9 6 -6 3 4 40
-14 82 -40 42 -25 90 -52 105 -61 16 -9 36 -21 45 -26 9 -6 51 -29 92 -53 41
-24 89 -51 105 -61 17 -10 170 -98 340 -196 171 -98 370 -213 443 -256 73 -44
135 -79 137 -79 3 0 37 -20 77 -44 40 -24 116 -68 168 -98 221 -128 494 -285
545 -313 30 -17 60 -36 67 -43 7 -7 16 -12 21 -12 5 0 54 -27 109 -60 54 -33
101 -60 103 -60 3 0 53 -29 112 -63 233 -137 373 -217 383 -217 5 0 10 -4 10
-10 0 -5 4 -10 9 -10 6 0 67 -34 138 -75 70 -41 138 -75 151 -75 20 0 126 55
267 139 17 10 50 29 75 43 25 14 113 65 195 113 83 48 170 99 195 112 25 14
70 41 101 59 31 19 61 34 67 34 6 0 12 3 14 8 3 6 114 72 398 234 47 27 101
58 120 70 94 55 318 183 345 197 16 9 32 18 35 21 3 3 19 12 35 20 17 8 32 17
35 20 10 10 153 90 161 90 5 0 9 5 9 10 0 6 4 10 9 10 8 0 248 134 321 179 28
17 948 550 981 567 11 6 31 21 45 33 l24 21 0 2861 0 2860 -29 30 -29 29
-3372 0 -3372 0 -29 -29z m6651 -2902 l0 -2756 -40 -27 c-22 -14 -42 -26 -45
-26 -4 0 -113 -63 -155 -90 -8 -5 -37 -21 -63 -35 -27 -14 -77 -44 -113 -65
-35 -22 -66 -40 -68 -40 -3 0 -98 -55 -156 -90 -8 -5 -69 -40 -135 -78 -291
-167 -462 -266 -490 -286 -16 -11 -32 -20 -35 -20 -3 1 -22 -10 -42 -22 -21
-13 -39 -24 -42 -24 -2 0 -34 -18 -70 -40 -36 -22 -68 -40 -72 -40 -3 0 -18
-8 -32 -19 -15 -10 -53 -33 -85 -50 -32 -18 -79 -45 -105 -61 -26 -16 -63 -37
-82 -46 -19 -10 -37 -21 -40 -24 -3 -4 -10 -9 -15 -11 -9 -3 -336 -190 -385
-220 -113 -68 -170 -99 -179 -99 -6 0 -11 -3 -11 -7 0 -5 -10 -13 -23 -19 -12
-6 -67 -37 -122 -69 -55 -32 -120 -69 -144 -83 -25 -14 -67 -38 -93 -53 -27
-16 -53 -29 -58 -29 -4 0 -10 -4 -12 -8 -1 -5 -15 -15 -29 -23 -54 -29 -144
-79 -159 -89 -8 -5 -45 -27 -82 -49 l-67 -39 -398 230 c-374 217 -459 266
-508 292 -11 6 -22 13 -25 16 -5 5 -41 26 -100 57 -19 10 -37 20 -40 23 -9 10
-172 100 -181 100 -5 0 -9 4 -9 9 0 5 -8 11 -17 15 -10 3 -31 14 -48 23 -16
10 -59 35 -95 56 -36 21 -72 42 -80 47 -97 58 -261 150 -269 150 -6 0 -11 3
-11 8 0 4 -10 12 -23 18 -12 6 -93 52 -180 102 -88 51 -163 92 -168 92 -5 0
-9 5 -9 10 0 6 -6 10 -13 10 -7 0 -19 6 -25 13 -7 6 -16 12 -20 12 -4 1 -26
13 -49 28 -24 15 -47 27 -52 27 -5 0 -14 7 -21 15 -7 8 -16 13 -20 10 -5 -3
-11 -1 -15 5 -3 6 -23 19 -43 31 -20 11 -55 31 -77 44 -22 13 -47 27 -55 31
-8 4 -48 27 -88 51 -41 24 -75 43 -78 43 -2 0 -28 16 -58 35 -30 19 -60 35
-66 35 -5 0 -10 5 -10 11 0 5 -4 8 -9 4 -5 -3 -12 -1 -15 4 -5 8 -32 24 -161
97 -22 12 -78 44 -125 71 l-85 49 -3 2756 c-2 2575 -1 2757 15 2760 9 2 1472
3 3250 3 l3233 0 0 -2756z"/>
<path d="M1536 6920 c-1 -3 -2 -205 -2 -450 l1 -445 55 0 55 0 2 215 c0 118 2
222 3 230 2 14 14 -19 25 -65 2 -11 14 -56 25 -100 12 -44 27 -104 35 -134 11
-47 26 -70 45 -71 9 0 25 52 72 230 l43 165 3 -237 2 -238 55 0 55 0 1 38 c3
175 -1 856 -6 860 -5 5 -76 5 -80 0 -3 -5 -126 -412 -130 -431 -5 -22 -14 -37
-24 -37 -6 0 -28 64 -47 135 -1 6 -21 71 -44 145 -23 74 -44 147 -47 162 -4
23 -10 27 -50 30 -25 2 -46 1 -47 -2z"/>
<path d="M2198 6919 c-10 -6 -13 -98 -13 -451 l0 -443 58 -3 57 -3 1 343 c0
189 0 388 0 442 0 54 -4 103 -9 108 -11 11 -77 16 -94 7z"/>
<path d="M2554 6922 c-38 -2 -57 -9 -73 -26 -20 -21 -22 -34 -22 -140 1 -88 5
-124 17 -149 9 -17 20 -34 23 -37 7 -6 23 -28 112 -160 l65 -95 -2 -94 c-2
-52 -7 -97 -13 -100 -9 -6 -22 -6 -76 -2 -7 1 -10 36 -10 94 1 50 0 98 -3 105
-3 7 -24 12 -57 12 -41 0 -54 -4 -57 -16 -2 -9 -1 -70 2 -136 7 -159 7 -159
171 -157 160 2 159 0 161 180 0 74 -2 145 -6 158 -7 20 -104 164 -184 270 -25
33 -29 69 -23 176 1 19 21 23 86 16 6 -1 10 -34 10 -80 l0 -79 57 0 58 0 1 67
c1 104 -2 143 -14 163 -17 27 -94 38 -223 30z"/>
<path d="M3022 6923 c-4 -1 -20 -4 -35 -7 -43 -10 -55 -51 -52 -178 2 -106 3
-108 41 -168 22 -33 42 -60 47 -60 4 0 7 -7 7 -15 0 -8 5 -15 10 -15 6 0 10
-6 10 -13 0 -7 8 -22 18 -33 10 -10 32 -40 50 -66 31 -45 32 -50 32 -146 l0
-100 -32 -4 c-55 -6 -70 1 -68 30 1 15 2 62 1 105 l-1 78 -57 -3 -58 -3 0
-115 c-1 -131 7 -168 42 -181 13 -5 73 -9 133 -9 156 0 154 -2 157 181 2 167
5 157 -116 327 -45 63 -81 118 -81 123 0 5 -4 9 -8 9 -13 0 -11 160 2 161 6 1
28 2 48 3 l38 1 1 -65 c1 -36 2 -72 3 -80 1 -11 14 -15 56 -15 l55 0 2 104 c1
97 -1 106 -23 127 -14 15 -35 24 -56 25 -18 0 -61 1 -96 2 -34 1 -65 1 -70 0z"/>
<path d="M3434 6918 c-4 -7 -8 -810 -5 -885 1 -9 19 -13 56 -13 37 0 55 4 56
13 4 49 3 871 -1 878 -8 11 -100 18 -106 7z"/>
<path d="M3755 6912 c-18 -8 -36 -21 -40 -30 -3 -9 -6 -196 -6 -417 l0 -400
27 -23 c25 -22 33 -23 174 -21 132 1 151 3 169 20 12 11 22 23 22 27 6 36 3
783 -3 803 -5 14 -20 32 -33 39 -33 18 -267 19 -310 2z m218 -91 c16 -1 17
-25 17 -350 0 -325 -1 -350 -17 -353 -10 -3 -28 -1 -40 3 -12 5 -25 5 -27 0
-3 -4 -22 -5 -43 -2 l-38 6 0 343 c0 266 3 345 12 351 11 6 63 7 136 2z"/>
<path d="M4276 6922 c-2 -4 -3 -207 -2 -452 l1 -445 53 -3 52 -3 0 108 c1 59
1 164 1 233 0 75 3 119 9 110 4 -8 32 -69 60 -135 29 -66 62 -142 74 -170 13
-27 31 -71 42 -98 18 -44 21 -47 52 -45 l32 2 0 448 c0 291 -3 448 -10 449 -5
1 -21 1 -35 1 -69 0 -63 19 -63 -204 -1 -112 -1 -221 -2 -243 l-1 -40 -29 70
c-16 39 -61 146 -102 239 -65 150 -76 171 -100 177 -16 4 -30 4 -32 1z"/>
<path d="M5187 6918 c-7 -4 -10 -142 -9 -435 0 -235 1 -436 1 -446 1 -18 10
-19 134 -15 123 3 136 5 170 28 22 15 42 39 49 60 14 42 19 631 5 697 -8 41
-61 102 -90 104 -7 0 -21 3 -32 5 -33 8 -216 9 -228 2z m219 -122 c22 -24 22
-31 22 -325 0 -335 1 -331 -68 -349 -70 -18 -67 -35 -65 343 1 187 3 345 3
351 1 6 20 9 44 8 31 -2 48 -9 64 -28z"/>
<path d="M5831 6921 c-4 -3 -13 -33 -19 -66 -6 -33 -13 -71 -16 -85 -3 -14
-17 -90 -31 -170 -33 -187 -32 -178 -43 -230 -6 -25 -13 -63 -16 -85 -4 -22
-8 -47 -11 -55 -2 -8 -6 -31 -9 -50 -3 -19 -8 -46 -11 -60 -2 -13 -7 -41 -10
-63 l-6 -38 58 3 c32 2 58 8 59 13 0 6 4 37 9 70 5 33 9 62 10 65 2 20 22 26
87 24 88 -2 93 -3 86 -9 -3 -3 1 -38 8 -77 7 -39 11 -74 9 -78 -3 -5 24 -8 59
-9 62 0 64 1 60 22 -2 12 -7 38 -10 57 -3 19 -14 80 -24 135 -11 55 -21 114
-24 130 -2 17 -9 55 -16 85 -6 30 -13 69 -15 85 -3 17 -10 55 -17 85 -6 30
-12 62 -12 70 -1 8 -5 31 -9 50 -7 36 -13 70 -23 130 -3 19 -9 38 -12 42 -9 9
-99 16 -111 9z m63 -321 c9 -53 15 -91 22 -130 13 -72 15 -86 20 -130 l6 -46
-59 1 c-55 0 -58 1 -57 25 1 31 11 94 34 215 6 28 12 61 14 75 3 14 5 27 5 29
2 12 10 -8 15 -39z"/>
<path d="M6147 6922 c-14 -3 -17 -9 -12 -25 7 -25 12 -45 101 -367 21 -74 39
-153 40 -175 2 -22 3 -42 4 -45 1 -3 1 -32 0 -65 0 -33 -1 -67 -1 -75 0 -8 1
-45 2 -83 l1 -67 56 2 57 3 2 175 c1 164 3 182 33 285 17 61 33 117 34 125 2
8 9 35 16 60 11 40 16 60 23 95 2 6 5 15 8 20 11 20 32 125 26 131 -3 4 -28 7
-54 7 -47 0 -48 0 -60 -42 -6 -23 -14 -54 -17 -69 -3 -15 -12 -55 -20 -89 -14
-54 -21 -91 -30 -140 -1 -7 -5 -15 -8 -18 -6 -7 -8 -2 -29 75 -7 25 -14 50
-15 55 -4 13 -13 50 -18 73 -28 120 -40 152 -55 153 -9 0 -27 1 -41 2 -14 2
-33 1 -43 -1z"/>
<path d="M3935 5555 c-22 -13 -47 -28 -55 -32 -8 -4 -64 -36 -125 -71 -60 -36
-130 -76 -155 -90 -25 -14 -58 -34 -75 -46 -16 -11 -30 -19 -30 -17 0 3 -19
-8 -42 -22 -24 -15 -45 -27 -47 -27 -2 0 -48 -26 -103 -58 -54 -32 -118 -70
-143 -84 -81 -46 -275 -158 -290 -168 -8 -6 -24 -14 -35 -19 -11 -6 -33 -19
-49 -30 l-29 -20 -86 45 c-47 25 -93 49 -101 54 -8 5 -58 33 -110 61 -52 28
-117 64 -145 79 -108 59 -172 94 -220 119 -27 14 -52 28 -55 31 -3 3 -25 15
-50 28 -25 12 -67 35 -95 50 -27 16 -86 48 -130 72 -44 23 -84 47 -89 51 -29
27 -32 4 -30 -301 0 -171 5 -315 10 -320 5 -4 29 -19 54 -33 63 -34 121 -66
400 -220 135 -74 269 -147 298 -163 29 -16 61 -34 70 -39 9 -6 61 -34 115 -63
53 -29 98 -56 98 -60 4 -19 4 -312 1 -312 -2 0 -33 16 -68 35 -35 19 -94 51
-131 71 -38 20 -86 47 -108 59 -46 26 -221 122 -315 173 -36 19 -85 46 -110
60 -48 26 -92 50 -231 125 l-85 46 2 -315 c1 -173 3 -316 5 -318 6 -5 219
-123 589 -326 173 -95 333 -183 355 -195 22 -12 65 -36 95 -52 30 -17 96 -53
147 -81 51 -28 127 -70 170 -94 43 -23 120 -66 172 -95 51 -29 96 -53 98 -53
2 0 35 -17 71 -39 37 -21 92 -51 122 -68 30 -16 91 -49 135 -73 44 -24 92 -52
108 -62 15 -11 27 -16 27 -13 0 3 12 -2 28 -13 15 -10 71 -42 125 -71 l98 -53
37 20 c20 11 55 30 77 42 22 13 60 34 85 48 25 13 74 40 110 60 36 20 68 35
73 34 4 -1 7 2 7 7 0 5 8 11 18 14 9 3 49 24 87 46 39 22 95 53 125 69 30 16
114 62 185 102 72 39 159 88 195 107 36 20 175 96 310 170 135 75 270 149 300
166 30 16 90 50 132 73 43 24 80 44 82 44 3 0 28 14 56 30 29 17 86 49 128 72
42 22 92 50 112 61 19 11 69 38 110 60 41 22 81 45 89 52 11 11 14 62 13 257
0 134 -1 275 -2 315 l-2 72 -52 -26 c-28 -14 -59 -32 -68 -41 -10 -8 -18 -12
-18 -8 0 4 -13 -2 -29 -13 -15 -11 -39 -25 -52 -30 -13 -6 -46 -24 -74 -41
-27 -16 -57 -33 -65 -36 -8 -4 -64 -35 -125 -69 -60 -34 -135 -75 -165 -90
-30 -15 -57 -30 -60 -34 -3 -3 -27 -18 -55 -32 -27 -14 -100 -54 -162 -87 -62
-34 -115 -62 -118 -62 -3 0 -5 69 -5 154 l0 154 88 48 c172 94 175 95 310 170
26 15 74 41 107 59 33 18 78 43 100 55 139 79 254 140 264 140 6 0 11 4 11 9
0 5 8 11 18 14 9 3 48 23 86 45 l69 39 -1 312 c0 172 -3 316 -6 319 -3 2 -90
-42 -193 -98 -103 -57 -204 -112 -223 -122 -19 -10 -53 -29 -75 -42 -22 -12
-71 -40 -110 -60 -38 -21 -83 -46 -100 -56 -16 -9 -61 -34 -98 -54 -37 -20
-83 -45 -102 -56 -19 -11 -65 -36 -102 -56 -37 -20 -74 -41 -80 -47 -9 -6 -25
-2 -50 13 -58 35 -104 61 -148 85 -22 13 -107 62 -190 110 -155 91 -189 110
-252 146 -21 12 -105 60 -186 108 -82 47 -165 95 -185 107 -20 11 -53 30 -73
41 -20 12 -47 27 -60 35 -13 7 -26 15 -29 18 -8 8 -71 40 -78 40 -4 0 -25 -11
-47 -25z m433 -602 c41 -24 76 -43 78 -43 2 0 23 -12 47 -27 23 -15 44 -28 47
-28 3 0 16 -8 30 -17 55 -35 152 -88 161 -88 5 0 9 -4 9 -10 0 -5 5 -10 10
-10 6 0 40 -18 76 -40 36 -22 70 -40 74 -40 5 0 11 -8 14 -17 2 -10 4 -257 4
-549 l0 -531 -57 -31 c-31 -18 -81 -46 -111 -63 -30 -17 -68 -38 -85 -48 -16
-9 -32 -18 -35 -21 -4 -5 -157 -94 -270 -157 -19 -11 -110 -64 -203 -117 -131
-76 -173 -95 -192 -90 -14 3 -25 10 -25 14 0 5 -10 12 -22 16 -13 3 -34 14
-48 24 -23 16 -49 31 -170 98 -25 13 -52 31 -61 38 -9 8 -18 12 -21 9 -3 -3
-11 1 -18 10 -7 8 -19 15 -26 15 -8 0 -14 5 -14 10 0 6 -4 10 -9 10 -7 0 -106
55 -181 100 -8 5 -82 48 -165 96 -82 47 -152 90 -155 94 -9 15 -4 1070 6 1079
8 9 214 130 245 144 8 4 37 21 64 37 28 17 57 34 65 37 8 4 17 9 20 12 3 4 16
12 30 19 14 7 34 18 45 25 11 7 52 30 90 52 39 22 79 45 90 52 11 7 26 15 34
19 8 4 66 38 129 75 l114 67 157 -91 c86 -50 189 -110 229 -134z"/>
<path d="M3805 4870 c-93 -55 -187 -107 -207 -117 -21 -10 -38 -21 -38 -25 0
-5 -4 -8 -9 -8 -5 0 -70 -36 -146 -80 -76 -44 -141 -80 -145 -80 -4 0 -14 -8
-22 -17 -13 -16 -15 -77 -15 -453 0 -430 1 -435 21 -446 36 -19 98 -54 186
-107 47 -27 101 -59 120 -70 47 -26 221 -126 240 -137 55 -34 168 -97 181
-102 16 -6 34 3 294 154 72 41 175 101 230 133 163 95 199 115 223 127 12 6
22 21 23 32 1 26 1 825 0 848 -1 15 -17 26 -141 96 -126 70 -187 106 -202 120
-10 8 -18 11 -18 7 0 -4 -8 -1 -17 7 -10 8 -61 39 -113 68 -52 29 -103 60
-112 68 -10 8 -18 11 -18 7 0 -4 -8 -1 -17 7 -21 18 -110 68 -121 68 -4 0 -83
-45 -177 -100z m130 -185 l0 -145 47 0 48 0 0 145 c0 80 3 145 6 145 4 0 78
-42 166 -92 88 -51 188 -109 223 -128 35 -19 70 -41 77 -48 6 -6 15 -12 19
-12 5 0 35 -16 67 -35 l60 -35 0 -350 c1 -192 -1 -350 -4 -350 -3 0 -56 29
-118 65 -62 36 -117 65 -122 65 -5 0 -18 -16 -29 -36 -23 -44 -29 -37 122
-122 57 -31 103 -59 103 -62 0 -6 -108 -71 -160 -97 -14 -7 -47 -27 -75 -43
-55 -33 -180 -106 -223 -130 -15 -8 -58 -32 -95 -53 l-67 -39 -32 20 c-18 11
-49 29 -68 40 -19 11 -91 52 -160 92 -69 40 -145 84 -170 98 -25 14 -62 36
-82 49 -21 12 -42 23 -48 23 -5 0 -10 5 -10 11 0 5 -4 8 -9 5 -5 -3 -14 0 -20
8 -9 11 2 22 54 55 37 22 68 41 69 41 2 0 28 15 58 33 50 30 54 35 46 57 -5
14 -16 32 -24 41 -16 18 -27 15 -96 -29 -95 -61 -168 -99 -169 -89 -4 66 0
687 5 695 3 6 37 28 74 49 37 21 76 43 87 50 11 7 27 16 35 20 8 4 87 49 174
100 87 51 162 93 165 93 3 0 17 9 31 20 14 11 30 20 35 20 7 0 10 -52 10 -145z"/>
<path d="M3458 4365 c15 -27 30 -51 35 -53 4 -2 7 -7 7 -12 0 -4 27 -54 60
-109 33 -56 60 -104 60 -108 0 -3 6 -14 14 -22 7 -9 27 -41 43 -71 17 -30 54
-95 83 -145 29 -49 61 -106 72 -125 30 -53 82 -143 95 -165 7 -11 20 -35 30
-53 9 -18 21 -31 27 -29 8 3 187 303 249 417 37 68 223 389 239 413 11 15 16
27 11 27 -4 0 -3 4 3 8 10 6 44 64 44 74 0 2 -247 4 -549 4 l-550 0 27 -51z
m796 -54 c-5 -4 -68 -42 -141 -84 l-132 -75 -46 29 c-25 16 -47 29 -49 29 -2
0 -45 24 -96 54 l-92 54 282 0 c156 0 279 -3 274 -7z m-409 -190 l90 -52 -1
-152 c-1 -84 -2 -156 -3 -162 -1 -8 -98 154 -189 315 -14 25 -35 61 -47 80
-12 19 -27 46 -34 59 -14 26 -14 26 184 -88z m389 -32 c-133 -231 -146 -253
-166 -289 -11 -19 -24 -39 -28 -44 -5 -4 -9 63 -9 150 l-1 159 47 30 c27 16
50 30 53 29 3 0 10 4 15 9 15 12 159 94 163 92 2 -2 -32 -63 -74 -136z"/>
</g>
</svg>
